<!DOCTYPE svg PUBLIC "-//W3C//DTD SVG 1.1//EN" "https://www.w3.org/Graphics/SVG/1.1/DTD/svg11.dtd"><svg xmlns="http://www.w3.org/2000/svg" class="sc-cezyBN bcmetk graph" data-testid="graph" role="img" aria-labelledby="polymath-graph-title" width="619" height="1008"><title id="polymath-graph-title">Workflow Studio State Machine Graph</title><g transform="translate(12,12)" class="new-look-graph"><g class="nodes"><g class="node-container" transform="translate(297.375,22)"><g><circle class="sc-bDpDS cvJDZh shape" r="22"/><text class="sc-kzqdkY dHDlVi label"><tspan xml:space="preserve" text-anchor="middle" alignment-baseline="central">Start</tspan></text></g></g><g class="node-container" transform="translate(297.375,103.5)"><g class="sc-kbousE lnFbVp node state Task" data-testid="graph-Get Documents" data-state-id="Get Documents" data-state-type="Task"><g class="new-look-state-node "><rect x="-132.5" y="-24.5" width="265" height="49" rx="3" ry="3"/><g class="handle" transform="translate(-132.5,-24.5)"><path d="M5,16 L5,34 M8,16 L8,34"/></g><g class="icon" transform="translate(-116.5,-24)"><rect fill="var(--color-background-container-header-ni4jv3, #fafafa)" x="0.0361026108" y="0.0181291967" width="48" height="48"/><line x1="47.5" y1="0.49122807" x2="47.5" y2="47.5" stroke="var(--color-board-placeholder-active-ekuw58, #d5dbdb)" stroke-linecap="square"/><line x1="0.5" y1="0.49122807" x2="0.5" y2="47.5" stroke="var(--color-board-placeholder-active-ekuw58, #d5dbdb)" stroke-linecap="square"/><use href="#icon-service-systems-manager" aria-hidden="true"><title>Systems Manager</title></use></g><g class="text-lines" transform="translate(-60.5,-24.5)"><text transform="translate(0,17)" class="line1"><tspan xml:space="preserve" text-anchor="start">Systems Manager: GetParameters</tspan></text><text transform="translate(0,35.5)" class="line2 label"><tspan xml:space="preserve" text-anchor="start">Get Documents</tspan></text></g></g></g></g><g class="node-container" transform="translate(297.375,492)"><g class="sc-kbousE lnFbVp node state container Map" data-state-id="Letters" data-state-type="Map"><g class="new-look-state-node "><g class="bounding-box" transform="translate(0,5)"><g class="shape new-look-state-node-sub"><rect rx="3" ry="3" x="-297.375" y="-329" width="594.75" height="653" class="sc-YysOf eYSCSo"/><rect x="-105" y="-285" width="210" height="26" class="sc-YysOf sc-cVzyXs eYSCSo hsusBU"/><svg x="-90" y="-288.5" width="25" height="25" viewBox="0 -14 45 45" xmlns="http://www.w3.org/2000/svg"><g id="Symbols" stroke="none" stroke-width="1" fill="none" fill-rule="evenodd"><g id="pm-icon-/-flow-/-pass-copy"><g id="Icon/Symbol/File"><path fill-opacity="0" d="M5.5 27.5L5.5 2.5 18.793 2.5 24.5 8.207 24.5 27.5z"/><path fill="#788b9c" d="M18.586,3L24,8.414V27H6V3H18.586 M19,2H5v26h20V8L19,2L19,2z"/><g><path fill-opacity="0" d="M18.5 8.5L18.5 2.5 18.793 2.5 24.5 8.207 24.5 8.5z"/><path fill="#788b9c" d="M19,3.414L23.586,8H19V3.414 M19,2h-1v7h7V8L19,2L19,2z"/></g></g></g></g><style data-styled="true" data-styled-version="5.3.11">.lnFbVp{cursor:pointer;}/*!sc*/
data-styled.g104[id="sc-kbousE"]{content:"lnFbVp,"}/*!sc*/
.cWvSKN{stroke:#555;background-color:#555;stroke-width:1px;}/*!sc*/
data-styled.g105[id="sc-sLsrZ"]{content:"cWvSKN,"}/*!sc*/
.jQHxVU{stroke-width:0;stroke:none;fill:#f2f3f3;}/*!sc*/
data-styled.g106[id="sc-dBmzty"]{content:"jQHxVU,"}/*!sc*/
.eXUWpp{font-size:10px;line-height:12.5;stroke:none;}/*!sc*/
data-styled.g107[id="sc-fifgRP"]{content:"eXUWpp,"}/*!sc*/
.enQuJ{fill:var(--color-text-form-secondary-rh78tu,#687078);}/*!sc*/
data-styled.g118[id="sc-gdyeKB"]{content:"enQuJ,"}/*!sc*/
.dHDlVi{font-weight:400;font-size:12px;line-height:16px;font-family:Amazon Ember,Arial,Roboto,Arial,sans-serif;text-shadow:none;fill:var(--color-text-button-primary-default-ljg1xz,#16191f);}/*!sc*/
data-styled.g119[id="sc-kzqdkY"]{content:"dHDlVi,"}/*!sc*/
.cvJDZh{fill:#fff9cc;stroke:var(--color-text-form-secondary-rh78tu,#687078);stroke-width:0.6px;}/*!sc*/
data-styled.g120[id="sc-bDpDS"]{content:"cvJDZh,"}/*!sc*/
.xfUde{fill:#fff9cc;stroke:var(--color-text-form-secondary-rh78tu,#687078);stroke-width:0.6px;}/*!sc*/
data-styled.g121[id="sc-bVHCgj"]{content:"xfUde,"}/*!sc*/
.eYSCSo{stroke:var(--color-border-control-default-8uhjl0,#687078);stroke-width:1px;fill:var(--color-background-container-content-sgemmm,#ffffff);opacity:0.5;}/*!sc*/
.node &gt; .new-look-state-node.has-errors &gt; .bounding-box &gt; .sc-YysOf{stroke:var(--color-border-status-error-xj05xm,#d13212);fill:var(--color-background-status-error-oemu7d,#fdf3f1);}/*!sc*/
.selected &gt; .node &gt; .new-look-state-node &gt; .bounding-box &gt; .sc-YysOf{stroke:var(--color-border-status-info-q9np44,#0073bb);fill:var(--color-background-status-info-pgxhez,#f1faff);}/*!sc*/
.selected &gt; .node &gt; .new-look-state-node.has-errors &gt; .bounding-box &gt; .sc-YysOf{stroke:var(--color-border-status-error-xj05xm,#d13212);fill:#fde0da;}/*!sc*/
data-styled.g125[id="sc-YysOf"]{content:"eYSCSo,"}/*!sc*/
.hsusBU{opacity:1;}/*!sc*/
data-styled.g126[id="sc-cVzyXs"]{content:"hsusBU,"}/*!sc*/
</style><style>
.new-look-state-node &gt; rect:first-of-type {
  stroke: #687078;
  stroke-width: 1px;
  fill: #FFFFFF;
}

.new-look-state-node .error-icon circle {
 stroke-linejoin: round;
}

.new-look-state-node .error-icon circle, .new-look-state-node .error-icon path {
 stroke: var(--color-border-status-error-xj05xm, #d13212);
 fill: none;
 stroke-width: 2px;
}

.new-look-state-node.has-errors &gt; rect:first-of-type {
 stroke: var(--color-border-status-error-xj05xm, #d13212);
 fill: var(--color-background-status-error-oemu7d, #fdf3f1);
}

.new-look-state-node.has-errors &gt; .bounding-box &gt; .new-look-state-node-sub &gt; rect {
  stroke: var(--color-border-status-error-xj05xm, #d13212);
  fill: var(--color-background-status-error-oemu7d, #fdf3f1);
}

.new-look-state-node .handle path {
  stroke: var(--color-border-dropdown-item-hover-gqjku2, #879596);
  stroke-width: 1px;
  fill: none;
}

.new-look-state-node {
  font-weight: 400;
  font-family: Amazon Ember, Arial, Roboto, Arial, sans-serif;
  text-shadow: none;
}

.new-look-state-node .line1 {
  fill: #687078;
  font-size: 12px;
}

.new-look-state-node .line2 {
  fill: #16191f;
}

.selected.node &gt; .new-look-state-node &gt; rect,
.selected.node &gt; .new-look-state-node &gt; .new-look-state-node &gt; rect,
.selected.node &gt; .new-look-state-node &gt; .bounding-box &gt; rect,
.selected.node &gt; .new-look-state-node.has-errors &gt; rect,
.selected.node &gt; .new-look-state-node.has-errors &gt; .bounding-box &gt; rect,
.selected.node &gt; .new-look-state-node.has-errors &gt; .new-look-state-node &gt; rect,
.selected.node &gt; .new-look-state-node &gt; .bounding-box &gt; .new-look-state-node-sub &gt; rect
 {
  stroke: var(--color-border-status-info-q9np44, #0073bb);
  fill: var(--color-background-status-info-pgxhez, #f1faff);
  stroke-width: 1px;
}

.new-look-state-node-sub .item-source.not-specified {
  height: 15px;
  color: #687078;
  font-family: "Amazon Ember";
  font-size: 12px;
  letter-spacing: 0;
  line-height: 16px;
  font-weight: 400;
}
.new-look-state-node-sub .item-source .item-source_name{
  font-weight: 600;
}
.new-look-state-node-sub .item-source.not-specified .item-source_name{
  font-weight: 400;
}

.new-look-state-node-sub .item-source.not-specified {
  font-style: italic;
}

.new-look-state-node-sub &gt; rect,
.new-look-state-node &gt; .bounding-box &gt; rect {
  stroke: var(--color-border-control-default-8uhjl0, #687078);
  fill: #ffffff;
}

.new-look-graph .drag-source {
  opacity: 0.2;
}

.new-look-graph .edge, .new-look-graph path.starting-connection {
  stroke-width: 1px;
  stroke: var(--color-text-form-secondary-rh78tu, #687078);
  marker-end: url(#large-arrowhead);
}

.new-look-graph .edge-label {
  cursor: pointer;
}

.new-look-graph .edge-label rect {
  stroke-width: 1px;
  stroke: var(--color-border-control-default-8uhjl0, #687078);
  fill: #fafafa;
}

.new-look-graph .edge-label.selected rect {
  stroke: var(--color-border-status-info-q9np44, #0073bb);
  fill: var(--color-background-status-info-pgxhez, #f1faff);
  stroke-width: 0.6px;
}



.new-look-graph .edge-label .label {
  fill: var(--color-text-form-secondary-rh78tu, #687078);
  font-family: Amazon Ember, Arial, Roboto, Arial, sans-serif;
}

/* centering the shape text */
@-moz-document url-prefix() {
  .new-look-graph .shape + text,
  .new-look-graph .edge-label text {
    transform: translateY(3.5px);
  }
}

.new-look-graph .edge path {
  marker-end: url(#large-arrowhead) !important;
}

.new-look-graph .edge.selected path{
  stroke: var(--color-border-status-info-q9np44, #0073bb);
  stroke-width: 1.1px;
}

.new-look-graph .edge.dragging-over path, .new-look-graph  g.dragging-over .starting-connection {
  stroke: #5C86FF;
  stroke-width: 2px;
}

.new-look-graph .edge.dragging-over path, .new-look-graph .dragging-over path.starting-connection {
  marker-end: url(#large-highlighted-arrowhead) !important;
}

.new-look-graph .edge.dragging-over .edge-label text {
  fill: #5C86FF;
}

#large-highlighted-arrowhead {
  fill: #5C86FF;
}

#large-highlighted-arrowhead path {
  stroke: none;
}

.new-look-graph .edge.drop-not-supported path, g.drop-not-supported .starting-connection {
  stroke: red;
}

.new-look-graph .edge.drop-not-supported .edge-label text {
  fill: red;
}

.new-look-graph .edge.drop-not-supported path {
  marker-end: url(#large-error-arrowhead) !important;
}

#large-error-arrowhead {
  fill: red;
}

.node-container * &gt; .icon  {
  &gt; rect {
    fill: #fafafa;
  }
  &gt; line {
    stroke: #d5dbdb;
  }
}


.node.Placeholder.dragging-over rect {
  stroke: var(--color-border-status-info-q9np44, #0073bb);
  fill: var(--color-background-status-info-pgxhez, #f1faff);
  stroke-width: 2px;
}

.node.Placeholder.dragging-over .label {
  fill: var(--color-text-status-info-aq7yd6, #0073bb);
}

g.Placeholder rect {
  stroke-dasharray: 5 4;
  stroke: var(--color-border-dropdown-item-hover-gqjku2, #879596);
  fill: #ffffff;
  stroke-width: 1px;
}

g.Placeholder .label {
  font-style: italic;
  fill: var(--color-text-input-placeholder-epedqe, #687078);
}

.node.Placeholder.drop-not-supported rect {
  stroke: red;
}

.node.Placeholder.drop-not-supported .label {
  fill: red;
}
</style><style>.line2 { font-size: 14px }</style></svg><text x="-65" y="-268" class="line1"><tspan class="item-source" xml:space="preserve" text-anchor="start"><tspan>Item source</tspan><tspan class="item-source_name"><tspan>: $.bucketKey</tspan></tspan></tspan></text></g><g class="content" transform="translate(-297.375,-329)"><g class="branch" transform="translate(20,124)"><g transform=""><g class="nodes"><g class="node-container" transform="translate(330.75,24.5)"><g class="sc-kbousE lnFbVp node state Choice" data-testid="graph-Validate Document" data-state-id="Validate Document" data-state-type="Choice"><g class="new-look-state-node "><rect x="-120" y="-24.5" width="240" height="49" rx="3" ry="3"/><g class="handle" transform="translate(-120,-24.5)"><path d="M5,16 L5,34 M8,16 L8,34"/></g><g class="icon" transform="translate(-104,-24)"><rect fill="var(--color-background-container-header-ni4jv3, #fafafa)" x="0.0361026108" y="0.0181291967" width="48" height="48"/><line x1="47.5" y1="0.49122807" x2="47.5" y2="47.5" stroke="var(--color-board-placeholder-active-ekuw58, #d5dbdb)" stroke-linecap="square"/><line x1="0.5" y1="0.49122807" x2="0.5" y2="47.5" stroke="var(--color-board-placeholder-active-ekuw58, #d5dbdb)" stroke-linecap="square"/><use href="#icon-flow-choice"/></g><g class="text-lines" transform="translate(-48,-24.5)"><text transform="translate(0,17)" class="line1"><tspan xml:space="preserve" text-anchor="start">Choice state</tspan></text><text transform="translate(0,35.5)" class="line2 label"><tspan xml:space="preserve" text-anchor="start">Validate Document</tspan></text></g></g></g></g><g class="node-container" transform="translate(213.75,125)"><g class="sc-kbousE lnFbVp node state Pass" data-testid="graph-Generate Letter ID" data-state-id="Generate Letter ID" data-state-type="Pass"><g class="new-look-state-node "><rect x="-120" y="-24.5" width="240" height="49" rx="3" ry="3"/><g class="handle" transform="translate(-120,-24.5)"><path d="M5,16 L5,34 M8,16 L8,34"/></g><g class="icon" transform="translate(-104,-24)"><rect fill="var(--color-background-container-header-ni4jv3, #fafafa)" x="0.0361026108" y="0.0181291967" width="48" height="48"/><line x1="47.5" y1="0.49122807" x2="47.5" y2="47.5" stroke="var(--color-board-placeholder-active-ekuw58, #d5dbdb)" stroke-linecap="square"/><line x1="0.5" y1="0.49122807" x2="0.5" y2="47.5" stroke="var(--color-board-placeholder-active-ekuw58, #d5dbdb)" stroke-linecap="square"/><use href="#icon-flow-pass"/></g><g class="text-lines" transform="translate(-48,-24.5)"><text transform="translate(0,17)" class="line1"><tspan xml:space="preserve" text-anchor="start">Pass state</tspan></text><text transform="translate(0,35.5)" class="line2 label"><tspan xml:space="preserve" text-anchor="start">Generate Letter ID</tspan></text></g></g></g></g><g class="node-container" transform="translate(430.75,393.5)"><g class="sc-kbousE lnFbVp node state Fail" data-testid="graph-Failed" data-state-id="Failed" data-state-type="Fail"><g class="new-look-state-node "><rect x="-120" y="-24.5" width="240" height="49" rx="3" ry="3"/><g class="handle" transform="translate(-120,-24.5)"><path d="M5,16 L5,34 M8,16 L8,34"/></g><g class="icon" transform="translate(-104,-24)"><rect fill="var(--color-background-container-header-ni4jv3, #fafafa)" x="0.0361026108" y="0.0181291967" width="48" height="48"/><line x1="47.5" y1="0.49122807" x2="47.5" y2="47.5" stroke="var(--color-board-placeholder-active-ekuw58, #d5dbdb)" stroke-linecap="square"/><line x1="0.5" y1="0.49122807" x2="0.5" y2="47.5" stroke="var(--color-board-placeholder-active-ekuw58, #d5dbdb)" stroke-linecap="square"/><use href="#icon-flow-fail"/></g><g class="text-lines" transform="translate(-48,-24.5)"><text transform="translate(0,17)" class="line1"><tspan xml:space="preserve" text-anchor="start">Fail state</tspan></text><text transform="translate(0,35.5)" class="line2 label"><tspan xml:space="preserve" text-anchor="start">Failed</tspan></text></g></g></g></g><g class="node-container" transform="translate(213.75,209)"><g class="sc-kbousE lnFbVp node state Task" data-testid="graph-Update Super Mailbox" data-state-id="Update Super Mailbox" data-state-type="Task"><g class="new-look-state-node "><rect x="-120" y="-24.5" width="240" height="49" rx="3" ry="3"/><g class="handle" transform="translate(-120,-24.5)"><path d="M5,16 L5,34 M8,16 L8,34"/></g><g class="icon" transform="translate(-104,-24)"><rect fill="var(--color-background-container-header-ni4jv3, #fafafa)" x="0.0361026108" y="0.0181291967" width="48" height="48"/><line x1="47.5" y1="0.49122807" x2="47.5" y2="47.5" stroke="var(--color-board-placeholder-active-ekuw58, #d5dbdb)" stroke-linecap="square"/><line x1="0.5" y1="0.49122807" x2="0.5" y2="47.5" stroke="var(--color-board-placeholder-active-ekuw58, #d5dbdb)" stroke-linecap="square"/><use href="#icon-service-ddb" aria-hidden="true"><title>DynamoDB</title></use></g><g class="text-lines" transform="translate(-48,-24.5)"><text transform="translate(0,17)" class="line1"><tspan xml:space="preserve" text-anchor="start">DynamoDB: PutItem</tspan></text><text transform="translate(0,35.5)" class="line2 label"><tspan xml:space="preserve" text-anchor="start">Update Super Mailbox</tspan></text></g></g></g></g><g class="node-container" transform="translate(135,293)"><g class="sc-kbousE lnFbVp node state Task" data-testid="graph-Update Super Scoreboard" data-state-id="Update Super Scoreboard" data-state-type="Task"><g class="new-look-state-node "><rect x="-122.5" y="-24.5" width="245" height="49" rx="3" ry="3"/><g class="handle" transform="translate(-122.5,-24.5)"><path d="M5,16 L5,34 M8,16 L8,34"/></g><g class="icon" transform="translate(-106.5,-24)"><rect fill="var(--color-background-container-header-ni4jv3, #fafafa)" x="0.0361026108" y="0.0181291967" width="48" height="48"/><line x1="47.5" y1="0.49122807" x2="47.5" y2="47.5" stroke="var(--color-board-placeholder-active-ekuw58, #d5dbdb)" stroke-linecap="square"/><line x1="0.5" y1="0.49122807" x2="0.5" y2="47.5" stroke="var(--color-board-placeholder-active-ekuw58, #d5dbdb)" stroke-linecap="square"/><use href="#icon-service-ddb" aria-hidden="true"><title>DynamoDB</title></use></g><g class="text-lines" transform="translate(-50.5,-24.5)"><text transform="translate(0,17)" class="line1"><tspan xml:space="preserve" text-anchor="start">DynamoDB: UpdateItem</tspan></text><text transform="translate(0,35.5)" class="line2 label"><tspan xml:space="preserve" text-anchor="start">Update Super Scoreboard</tspan></text></g></g></g></g><g class="node-container" transform="translate(120,393.5)"><g class="sc-kbousE lnFbVp node state Pass" data-testid="graph-New Letter Event" data-state-id="New Letter Event" data-state-type="Pass"><g class="new-look-state-node "><rect x="-120" y="-24.5" width="240" height="49" rx="3" ry="3"/><g class="handle" transform="translate(-120,-24.5)"><path d="M5,16 L5,34 M8,16 L8,34"/></g><g class="icon" transform="translate(-104,-24)"><rect fill="var(--color-background-container-header-ni4jv3, #fafafa)" x="0.0361026108" y="0.0181291967" width="48" height="48"/><line x1="47.5" y1="0.49122807" x2="47.5" y2="47.5" stroke="var(--color-board-placeholder-active-ekuw58, #d5dbdb)" stroke-linecap="square"/><line x1="0.5" y1="0.49122807" x2="0.5" y2="47.5" stroke="var(--color-board-placeholder-active-ekuw58, #d5dbdb)" stroke-linecap="square"/><use href="#icon-flow-pass"/></g><g class="text-lines" transform="translate(-48,-24.5)"><text transform="translate(0,17)" class="line1"><tspan xml:space="preserve" text-anchor="start">Pass state</tspan></text><text transform="translate(0,35.5)" class="line2 label"><tspan xml:space="preserve" text-anchor="start">New Letter Event</tspan></text></g></g></g></g><g class="node-container" transform="translate(213.75,461)"><g><circle class="sc-bVHCgj xfUde shape" r="8"/></g></g></g><g class="edges"><g class="sc-sLsrZ cWvSKN edge"><path id="state-Validate Document:state-Generate Letter ID:choiceRule:0" d="M273.70522388059703,49L263.7126865671642,53.291666666666664C253.72014925373136,57.583333333333336,233.73507462686567,66.16666666666667,223.74253731343285,74.75C213.75,83.33333333333333,213.75,91.91666666666667,213.75,96.20833333333333L213.75,100.5" marker-end="url(#arrowhead)" fill="none"/><g data-testid="graph-Validate Document-0" class="edge-label" transform="translate(223.74253731343285,74.75)"><rect x="-102" y="-8.25" width="204" height="16.5" class="sc-dBmzty jQHxVU"/><text class="sc-fifgRP eXUWpp label"><tspan xml:space="preserve" text-anchor="middle" alignment-baseline="central">$.documentType is present and $.docum…</tspan><title>$.documentType is present and $.documentType == "LOVE_LETTER"</title></text></g></g><g class="sc-sLsrZ cWvSKN edge"><path id="state-Validate Document:state-Failed:choiceDefault" d="M418.51119402985074,49L433.88432835820896,53.291666666666664C449.2574626865671,57.583333333333336,480.00373134328356,66.16666666666667,495.3768656716418,78.83333333333333C510.75,91.5,510.75,108.25,510.75,123.625C510.75,139,510.75,153,510.75,167C510.75,181,510.75,195,510.75,209C510.75,223,510.75,237,510.75,251C510.75,265,510.75,279,510.75,294.375C510.75,309.75,510.75,326.5,503.917495854063,339.1666666666667C497.0849917081261,351.8333333333333,483.4199834162521,360.4166666666667,476.5874792703151,364.7083333333333L469.7549751243781,369" marker-end="url(#arrowhead)" fill="none"/><g data-testid="graph-Validate Document-Default" class="edge-label" transform="translate(495.3768656716418,78.83333333333333)"><rect x="-22" y="-8.25" width="44" height="16.5" class="sc-dBmzty jQHxVU"/><text class="sc-fifgRP eXUWpp label"><tspan xml:space="preserve" text-anchor="middle" alignment-baseline="central">Default</tspan><title>Default</title></text></g></g><g class="sc-sLsrZ cWvSKN edge"><path id="state-Generate Letter ID:state-Update Super Mailbox:normal" d="M213.75,149.5L213.75,152.41666666666666C213.75,155.33333333333334,213.75,161.16666666666666,213.75,167C213.75,172.83333333333334,213.75,178.66666666666666,213.75,181.58333333333334L213.75,184.5" marker-end="url(#arrowhead)" fill="none"/></g><g class="sc-sLsrZ cWvSKN edge"><path id="state-Update Super Mailbox:state-Update Super Scoreboard:normal" d="M167.8125,233.5L162.34375,236.41666666666666C156.875,239.33333333333334,145.9375,245.16666666666666,140.46875,251C135,256.8333333333333,135,262.6666666666667,135,265.5833333333333L135,268.5" marker-end="url(#arrowhead)" fill="none"/></g><g class="sc-sLsrZ cWvSKN edge"><path id="state-Update Super Mailbox:state-Failed:catch:0" d="M295.4166666666667,233.5L305.1388888888889,236.41666666666666C314.86111111111114,239.33333333333334,334.3055555555556,245.16666666666666,344.0277777777778,255.08333333333334C353.75,265,353.75,279,353.75,294.375C353.75,309.75,353.75,326.5,360.32628524046436,339.1666666666667C366.9025704809287,351.8333333333333,380.05514096185743,360.4166666666667,386.63142620232173,364.7083333333333L393.2077114427861,369" marker-end="url(#arrowhead)" fill="none"/><g data-testid="graph-Update Super Mailbox-0" class="edge-label" transform="translate(344.0277777777778,255.08333333333334)"><rect x="-25" y="-8.25" width="50" height="16.5" class="sc-dBmzty jQHxVU"/><text class="sc-fifgRP eXUWpp label"><tspan xml:space="preserve" text-anchor="middle" alignment-baseline="central">Catch #1</tspan><title>Catch #1</title></text></g></g><g class="sc-sLsrZ cWvSKN edge"><path id="state-Update Super Scoreboard:state-New Letter Event:normal" d="M127.68656716417911,317.5L126.40547263681593,321.7916666666667C125.12437810945273,326.0833333333333,122.56218905472637,334.6666666666667,121.28109452736318,343.25C120,351.8333333333333,120,360.4166666666667,120,364.7083333333333L120,369" marker-end="url(#arrowhead)" fill="none"/></g><g class="sc-sLsrZ cWvSKN edge"><path id="state-Update Super Scoreboard:state-Failed:catch:0" d="M183.75621890547262,317.5L192.29684908789386,321.7916666666667C200.83747927031507,326.0833333333333,217.91873963515755,334.6666666666667,243.17765339966832,343.25C268.4365671641791,351.8333333333333,301.8731343283582,360.4166666666667,318.5914179104478,364.7083333333333L335.30970149253733,369" marker-end="url(#arrowhead)" fill="none"/><g data-testid="graph-Update Super Scoreboard-0" class="edge-label" transform="translate(243.17765339966832,343.25)"><rect x="-25" y="-8.25" width="50" height="16.5" class="sc-dBmzty jQHxVU"/><text class="sc-fifgRP eXUWpp label"><tspan xml:space="preserve" text-anchor="middle" alignment-baseline="central">Catch #1</tspan><title>Catch #1</title></text></g></g><g class="sc-sLsrZ cWvSKN edge"><path id="state-New Letter Event:end:normal" d="M120,418L120,420.9166666666667C120,423.8333333333333,120,429.6666666666667,134.33841100905622,436.4833811277966C148.6768220181124,443.3000955889266,177.35364403622484,451.1001911778532,191.69205504528102,455.0002389723165L206.03046605433724,458.90028676677974" marker-end="url(#arrowhead)" fill="none"/></g><g class="sc-sLsrZ cWvSKN edge"><path id="state-Failed:end:normal" d="M430.75,418L430.75,420.9166666666667C430.75,423.8333333333333,430.75,429.6666666666667,395.9075549545801,436.6777220368274C361.0651099091603,443.6887774069881,291.38021981832054,451.87755481397613,256.5377747729007,455.9719435174702L221.6953297274808,460.0663322209642" marker-end="url(#arrowhead)" fill="none"/></g></g></g></g><g class="sc-sLsrZ cWvSKN"><path id="Letters-Validate Document" class="path starting-connection" d="M297.375,69L297.375,73.58333333333333C297.375,78.16666666666667,297.375,87.33333333333333,306.2708333333333,91.91666666666667C315.1666666666667,96.5,332.9583333333333,96.5,341.8541666666667,101.08333333333333C350.75,105.66666666666667,350.75,114.83333333333333,350.75,119.41666666666667L350.75,124" fill="none"/></g></g></g><g class="new-look-state-node "><rect x="-120" y="-329" width="240" height="49" rx="3" ry="3"/><g class="handle" transform="translate(-120,-329)"><path d="M5,16 L5,34 M8,16 L8,34"/></g><g class="icon" transform="translate(-104,-328.5)"><rect fill="var(--color-background-container-header-ni4jv3, #fafafa)" x="0.0361026108" y="0.0181291967" width="48" height="48"/><line x1="47.5" y1="0.49122807" x2="47.5" y2="47.5" stroke="var(--color-board-placeholder-active-ekuw58, #d5dbdb)" stroke-linecap="square"/><line x1="0.5" y1="0.49122807" x2="0.5" y2="47.5" stroke="var(--color-board-placeholder-active-ekuw58, #d5dbdb)" stroke-linecap="square"/><use href="#icon-flow-s3-json-file"/></g><g class="text-lines" transform="translate(-48,-329)"><text transform="translate(0,17)" class="line1"><tspan xml:space="preserve" text-anchor="start">Map: JSON file</tspan></text><text transform="translate(0,35.5)" class="line2 label"><tspan xml:space="preserve" text-anchor="start">Letters</tspan></text></g></g></g></g></g><g class="node-container" transform="translate(297.375,880.5)"><g class="sc-kbousE lnFbVp node state Task" data-testid="graph-Send Events" data-state-id="Send Events" data-state-type="Task"><g class="new-look-state-node "><rect x="-120" y="-24.5" width="240" height="49" rx="3" ry="3"/><g class="handle" transform="translate(-120,-24.5)"><path d="M5,16 L5,34 M8,16 L8,34"/></g><g class="icon" transform="translate(-104,-24)"><rect fill="var(--color-background-container-header-ni4jv3, #fafafa)" x="0.0361026108" y="0.0181291967" width="48" height="48"/><line x1="47.5" y1="0.49122807" x2="47.5" y2="47.5" stroke="var(--color-board-placeholder-active-ekuw58, #d5dbdb)" stroke-linecap="square"/><line x1="0.5" y1="0.49122807" x2="0.5" y2="47.5" stroke="var(--color-board-placeholder-active-ekuw58, #d5dbdb)" stroke-linecap="square"/><use href="#icon-service-events" aria-hidden="true"><title>Amazon EventBridge</title></use></g><g class="text-lines" transform="translate(-48,-24.5)"><text transform="translate(0,17)" class="line1"><tspan xml:space="preserve" text-anchor="start">EventBridge: PutEvents</tspan></text><text transform="translate(0,35.5)" class="line2 label"><tspan xml:space="preserve" text-anchor="start">Send Events</tspan></text></g></g></g></g><g class="node-container" transform="translate(297.375,962)"><g><circle class="sc-bDpDS cvJDZh shape" r="22"/><text class="sc-kzqdkY dHDlVi label"><tspan xml:space="preserve" text-anchor="middle" alignment-baseline="central">End</tspan></text></g></g></g><g class="edges"><g class="sc-sLsrZ cWvSKN edge"><path id="state-Get Documents:state-Letters:normal" d="M297.375,128L297.375,130.91666666666666C297.375,133.83333333333334,297.375,139.66666666666666,297.375,145.5C297.375,151.33333333333334,297.375,157.16666666666666,297.375,160.08333333333334L297.375,163" marker-end="url(#arrowhead)" fill="none"/></g><g class="sc-sLsrZ cWvSKN edge"><path id="start:state-Get Documents" d="M297.375,44L297.375,46.916666666666664C297.375,49.833333333333336,297.375,55.666666666666664,297.375,61.5C297.375,67.33333333333333,297.375,73.16666666666667,297.375,76.08333333333333L297.375,79" marker-end="url(#arrowhead)" fill="none"/></g><g class="sc-sLsrZ cWvSKN edge"><path id="state-Letters:state-Send Events:normal" d="M297.375,821L297.375,823.9166666666666C297.375,826.8333333333334,297.375,832.6666666666666,297.375,838.5C297.375,844.3333333333334,297.375,850.1666666666666,297.375,853.0833333333334L297.375,856" marker-end="url(#arrowhead)" fill="none"/></g><g class="sc-sLsrZ cWvSKN edge"><path id="state-Send Events:end:normal" d="M297.375,905L297.375,907.9166666666666C297.375,910.8333333333334,297.375,916.6666666666666,297.375,922.5C297.375,928.3333333333334,297.375,934.1666666666666,297.375,937.0833333333334L297.375,940" marker-end="url(#arrowhead)" fill="none"/></g></g><defs><marker id="arrowhead" markerWidth="8" markerHeight="6" refX="7" refY="3" orient="auto" class="sc-gdyeKB enQuJ"><polygon points="0 0, 8 3, 0 6"/></marker><marker id="highlighted-arrowhead" markerWidth="6" markerHeight="4" refX="5" refY="2" orient="auto" class="sc-gdyeKB enQuJ"><polygon points="0 0, 6 2, 0 4"/></marker><marker id="error-arrowhead" markerWidth="6" markerHeight="4" refX="5" refY="2" orient="auto" class="sc-gdyeKB enQuJ"><polygon points="0 0, 6 2, 0 4"/></marker><marker id="large-arrowhead" markerWidth="10" markerHeight="8" refX="9" refY="4" orient="auto" class="sc-gdyeKB enQuJ"><polygon points="0 0, 10 4, 0 8"/></marker><marker id="large-highlighted-arrowhead" markerWidth="5.5" markerHeight="4" refX="4.5" refY="2" orient="auto" class="sc-gdyeKB enQuJ"><polygon points="0 0, 5.5 2, 0 4"/></marker><marker id="large-error-arrowhead" markerWidth="10" markerHeight="8" refX="9" refY="4" orient="auto" class="sc-gdyeKB enQuJ"><polygon points="0 0, 10 4, 0 8"/></marker><linearGradient x1="0%" y1="100%" x2="100%" y2="0%" id="gradient-orange"><stop stop-color="#C8511B" offset="0%"/><stop stop-color="#FF9900" offset="100%"/></linearGradient><linearGradient x1="0%" y1="100%" x2="100%" y2="0%" id="gradient-turquoise"><stop stop-color="#055F4E" offset="0%"/><stop stop-color="#56C0A7" offset="100%"/></linearGradient><linearGradient x1="0%" y1="100%" x2="100%" y2="0%" id="gradient-blue"><stop stop-color="#2E27AD" offset="0%"/><stop stop-color="#527FFF" offset="100%"/></linearGradient><linearGradient x1="0%" y1="100%" x2="100%" y2="0%" id="gradient-pink"><stop stop-color="#B0084D" offset="0%"/><stop stop-color="#FF4F8B" offset="100%"/></linearGradient><linearGradient x1="0%" y1="100%" x2="100%" y2="0%" id="gradient-red"><stop stop-color="#BD0816" offset="0%"/><stop stop-color="#FF5252" offset="100%"/></linearGradient><linearGradient x1="0%" y1="100%" x2="100%" y2="0%" id="gradient-green"><stop stop-color="#1B660F" offset="0%"/><stop stop-color="#6CAE3E" offset="100%"/></linearGradient><linearGradient x1="0%" y1="100%" x2="100%" y2="0%" id="gradient-purple"><stop stop-color="#4D27A8" offset="0%"/><stop stop-color="#A166FF" offset="100%"/></linearGradient><linearGradient x1="0%" y1="100%" x2="100%" y2="0%" id="gradient-grey"><stop stop-color="#DCDCDC" offset="0%"/><stop stop-color="#F6F5F7" offset="100%"/></linearGradient>,<linearGradient x1="0%" y1="100%" x2="100%" y2="0%" id="gradient-ag"><stop stop-color="#BC1356" offset="0%"/><stop stop-color="#F34482" offset="100%"/></linearGradient><linearGradient x1="0%" y1="100%" x2="100%" y2="0%" id="gradient-athena"><stop stop-color="#5930B5" offset="0%"/><stop stop-color="#945DF2" offset="100%"/></linearGradient><linearGradient x1="0%" y1="100%" x2="100%" y2="0%" id="gradient-emr"><stop stop-color="#5930B5" offset="0%"/><stop stop-color="#945DF2" offset="100%"/></linearGradient><linearGradient x1="0%" y1="100%" x2="100%" y2="0%" id="gradient-glue"><stop stop-color="#5930B5" offset="0%"/><stop stop-color="#945DF2" offset="100%"/></linearGradient><linearGradient x1="0%" y1="100%" x2="100%" y2="0%" id="gradient-sns"><stop stop-color="#BC1356" offset="0%"/><stop stop-color="#F34482" offset="100%"/></linearGradient><linearGradient x1="0%" y1="100%" x2="100%" y2="0%" id="gradient-states"><stop stop-color="#BC1356" offset="0%"/><stop stop-color="#F34482" offset="100%"/></linearGradient><linearGradient x1="0%" y1="100%" x2="100%" y2="0%" id="gradient-generic"><stop stop-color="#ccc" offset="0%"/><stop stop-color="#ddd" offset="100%"/></linearGradient><g stroke="none" stroke-width="1" fill="none" fill-rule="evenodd" id="icon-flow-pass"><g transform="translate(10.500000, 8.750000)" fill="#0073BB" fill-rule="nonzero"><path d="M13.8217363,31.2803301 L13.7368454,31.3532508 L13.7368454,31.3532508 L13.6534426,31.407053 L13.6534426,31.407053 L13.6052878,31.4313839 L13.6052878,31.4313839 L13.5081671,31.4681458 L13.5081671,31.4681458 L13.4513711,31.4828395 L13.4513711,31.4828395 L13.3846755,31.4942127 L13.3846755,31.4942127 L13.3412428,31.498357 L13.3412428,31.498357 L13.241495,31.498357 L13.241495,31.498357 L13.1802045,31.4917588 L13.1802045,31.4917588 L13.1314644,31.4828361 L13.1314644,31.4828361 L13.0652921,31.4652652 L12.9776235,31.4314294 L12.9776235,31.4314294 L12.9293782,31.4070608 L12.9293782,31.4070608 L12.8294824,31.3409596 L12.7610762,31.2803301 L12.7610762,31.2803301 L8.26107616,26.7803301 C7.96818295,26.4874369 7.96818295,26.0125631 8.26107616,25.7196699 C8.52734273,25.4534034 8.94400641,25.4291973 9.2376179,25.6470518 L9.32173634,25.7196699 L12.5814063,28.979 L12.581,19.7495522 L3.5,19.75 C1.6314366,19.75 0.104873551,18.2857224 0.00517886273,16.4420352 L0,16.25 L0,12.25 C0,10.3814366 1.4642776,8.85487355 3.3079648,8.75517886 L3.5,8.75 L11.686,8.74955216 L11.686,10.2495522 L3.5,10.25 C2.4456382,10.25 1.58183488,11.0658778 1.50548574,12.1007377 L1.5,12.25 L1.5,16.25 C1.5,17.3043618 2.31587779,18.1681651 3.35073766,18.2445143 L3.5,18.25 L22.5,18.25 C23.5543618,18.25 24.4181651,17.4341222 24.4945143,16.3992623 L24.5,16.25 L24.5,12.25 C24.5,11.1956382 23.6841222,10.3318349 22.6492623,10.2554857 L22.5,10.25 L15.686,10.2495522 L15.686,8.74955216 L22.5,8.75 C24.3685634,8.75 25.8951264,10.2142776 25.9948211,12.0579648 L26,12.25 L26,16.25 C26,18.1185634 24.5357224,19.6451264 22.6920352,19.7448211 L22.5,19.75 L14.081,19.7495522 L14.0814063,28.899 L17.2610762,25.7196699 L17.3451946,25.6470518 C17.6388061,25.4291973 18.0554698,25.4534034 18.3217363,25.7196699 C18.5880029,25.9859365 18.6122089,26.4026002 18.3943545,26.6962117 L18.3217363,26.7803301 L13.8217363,31.2803301 Z" fill="false"/><polygon points="14.0818291 0 14.0818291 14.5 12.5818291 14.5 12.5818291 0" fill="false"/></g></g><g stroke="none" stroke-width="1" fill="none" fill-rule="evenodd" id="icon-flow-map"><g transform="translate(7.250000, 12.250000)" fill="#0073BB" fill-rule="nonzero"><path d="M18.75 6.75C19.3023 6.75 19.75 7.19772 19.75 7.75V10.75C19.75 11.3023 19.3023 11.75 18.75 11.75H17V14.75H18.75C19.3023 14.75 19.75 15.1977 19.75 15.75V18.75C19.75 19.3023 19.3023 19.75 18.75 19.75H13.75C13.1977 19.75 12.75 19.3023 12.75 18.75V15.75C12.75 15.1977 13.1977 14.75 13.75 14.75H15.5V11.75H13.75C13.1977 11.75 12.75 11.3023 12.75 10.75V7.75C12.75 7.19772 13.1977 6.75 13.75 6.75H18.75ZM18.25 16.25H14.25V18.25H18.25V16.25ZM18.25 8.25H14.25V10.25H18.25V8.25Z" fill="false"/><path d="M4.36774 12.9782L4.25582 12.9874L4.16664 12.9828L4.0991 12.9721L4.01773 12.9507L3.91439 12.9084L3.84086 12.8662L3.80379 12.8403L3.71967 12.7677L0.21967 9.26773C-0.0732233 8.97484 -0.0732233 8.49996 0.21967 8.20707C0.485936 7.9408 0.9026 7.9166 1.19621 8.13445L1.28033 8.20707L3.5 10.427V5.75C3.5 2.64821 5.95602 0.120063 9.02944 0.00415208L9.25 0H24.25C27.3101 0 29.8183 2.39279 29.9906 5.418L29.9991 5.65629L30 7.75C30 8.16421 29.6642 8.5 29.25 8.5C28.8358 8.5 28.5 8.16421 28.5 7.75L28.4992 5.66855C28.4572 3.42607 26.6797 1.6129 24.4594 1.50507L24.25 1.5H9.25C6.97183 1.5 5.11231 3.29251 5.0049 5.54408L5 5.75V10.426L7.21967 8.20707L7.30379 8.13445C7.5974 7.9166 8.01406 7.9408 8.28033 8.20707C8.5466 8.47334 8.5708 8.89 8.35295 9.18361L8.28033 9.26773L4.78033 12.7677C4.7427 12.8054 4.70207 12.8382 4.65921 12.8661L4.58539 12.9085L4.50826 12.9417L4.44164 12.9626L4.36774 12.9782Z" fill="false"/><path d="M29.1567 12.4673L29.2442 12.4615L29.3612 12.4698L29.4099 12.4787L29.4761 12.4963L29.5349 12.5175L29.6052 12.5507L29.6962 12.6086L29.7803 12.6812L33.2803 16.1812C33.5732 16.4741 33.5732 16.949 33.2803 17.2419C33.0141 17.5081 32.5974 17.5323 32.3038 17.3145L32.2197 17.2419L30 15.0225V19.75C30 22.8518 27.544 25.3799 24.4706 25.4959L24.25 25.5H9.25C6.22365 25.5 3.73213 23.158 3.5153 20.1725L3.503 19.9226L3.5 17.75C3.5 17.3358 3.83579 17 4.25 17C4.6297 17 4.94349 17.2822 4.99315 17.6482L5 17.75L5.00248 19.8967C5.07738 22.112 6.8452 23.8894 9.04276 23.995L9.25 24H24.25C26.5282 24 28.3877 22.2075 28.4951 19.9559L28.5 19.75V15.0215L26.2803 17.2419L26.1962 17.3145C25.9026 17.5323 25.4859 17.5081 25.2197 17.2419C24.9534 16.9756 24.9292 16.5589 25.1471 16.2653L25.2197 16.1812L28.7197 12.6812L28.797 12.6137L28.8948 12.5507L28.965 12.5176L29.0427 12.4906L29.09 12.4787L29.1567 12.4673Z" fill="false"/></g></g><g stroke="none" stroke-width="1" fill="none" fill-rule="evenodd" id="icon-flow-choice"><g transform="translate(9.252020, 8.729185)" fill="#0073BB" fill-rule="nonzero"><path d="M13.7176503,0.219669914 C13.9839168,-0.0465966484 14.4005805,-0.0708026996 14.694192,0.147051761 L14.7783104,0.219669914 L26.7991257,12.2404852 C27.0653923,12.5067518 27.0895983,12.9234154 26.8717439,13.2170269 L26.7991257,13.3011454 L19.848,20.251 L27.063,27.58 L27.0635443,24.4725437 C27.0635443,24.0583302 27.3993308,23.7225437 27.8135443,23.7225437 C28.1901021,23.7225437 28.5018441,24.0000532 28.5554124,24.3617142 L28.5635443,24.4725437 L28.5635443,29.4222912 C28.5635443,29.4735748 28.5583971,29.5236562 28.5485912,29.5720469 L28.5290567,29.6477745 L28.4912259,29.7440224 L28.4674556,29.7898473 L28.4399848,29.8348433 L28.3922808,29.8993609 L28.3266417,29.9693147 L28.2903734,30.0012261 L28.2103598,30.0588356 L28.1372883,30.0990133 L28.0408973,30.1372113 L27.9243738,30.1641593 C27.8841362,30.1698129 27.8491297,30.1722912 27.8135443,30.1722912 L22.8637969,30.1722912 C22.4495833,30.1722912 22.1137969,29.8365048 22.1137969,29.4222912 C22.1137969,29.0457334 22.3913063,28.7339914 22.7529674,28.6804231 L22.8637969,28.6722912 L26.032,28.672 L18.787,21.312 L14.7783104,25.3219606 C14.5120439,25.5882272 14.0953802,25.6124333 13.8017687,25.3945788 L13.7176503,25.3219606 L9.63,21.234 L2.386,28.671 L5.69974747,28.6722912 L5.81057697,28.6804231 C6.17223802,28.7339914 6.44974747,29.0457334 6.44974747,29.4222912 C6.44974747,29.801987 6.16759359,30.1157822 5.80151803,30.1654446 L5.69974747,30.1722912 L0.75,30.1722912 L0.645175107,30.1650238 L0.571316134,30.150876 L0.491748953,30.1266437 L0.399838514,30.0857012 L0.323957521,30.0396165 L0.243169757,29.975129 L0.170912131,29.8989347 L0.109961584,29.8134582 L0.0656949991,29.7297074 L0.0297396696,29.6320944 L0.0076057584,29.5294944 L6.67910172e-13,29.4222912 L6.67910172e-13,24.4725437 L0.00813192572,24.3617142 C0.0617002376,24.0000532 0.373442216,23.7225437 0.75,23.7225437 C1.12969577,23.7225437 1.44349096,24.0046976 1.49315338,24.3707732 L1.5,24.4725437 L1.499,27.433 L8.569,20.174 L1.69683498,13.3011454 C1.43056842,13.0348788 1.40636237,12.6182151 1.62421683,12.3246036 L1.69683498,12.2404852 L13.7176503,0.219669914 Z M14.3527697,23.728356 L25.2081355,12.7708153 L14.2479803,1.81066017 L3.28782524,12.7708153 L9.616,19.099 L14.3527697,23.728356 Z" fill="false"/><path d="M15.2319803,14.0468153 L15.2319803,13.2668153 C16.0033137,12.8508153 16.5579803,12.4218153 16.8959803,11.9798153 C17.2339803,11.5378153 17.4029803,11.0178153 17.4029803,10.4198153 C17.4029803,9.65714861 17.151647,9.06131528 16.6489803,8.63231528 C16.1463137,8.20331528 15.448647,7.98881528 14.5559803,7.98881528 C13.6979803,7.98881528 12.874647,8.19248195 12.0859803,8.59981528 L12.0859803,8.59981528 L12.0859803,10.3288153 C12.8313137,9.98214861 13.4943137,9.80881528 14.0749803,9.80881528 C14.395647,9.80881528 14.6404803,9.87814861 14.8094803,10.0168153 C14.9784803,10.1554819 15.0629803,10.3591486 15.0629803,10.6278153 C15.0629803,10.9138153 14.9763137,11.1651486 14.8029803,11.3818153 C14.629647,11.5984819 14.343647,11.8151486 13.9449803,12.0318153 L13.9449803,12.0318153 L13.1909803,12.4348153 L13.3339803,14.0468153 L15.2319803,14.0468153 Z M14.3089803,17.4398153 C14.7249803,17.4398153 15.0608137,17.3141486 15.3164803,17.0628153 C15.572147,16.8114819 15.6999803,16.4821486 15.6999803,16.0748153 C15.6999803,15.6674819 15.572147,15.3381486 15.3164803,15.0868153 C15.0608137,14.8354819 14.7249803,14.7098153 14.3089803,14.7098153 C13.8929803,14.7098153 13.557147,14.8354819 13.3014803,15.0868153 C13.0458137,15.3381486 12.9179803,15.6674819 12.9179803,16.0748153 C12.9179803,16.4821486 13.0458137,16.8114819 13.3014803,17.0628153 C13.557147,17.3141486 13.8929803,17.4398153 14.3089803,17.4398153 Z" fill="false"/></g></g><g stroke="none" stroke-width="1" fill="none" fill-rule="evenodd" id="icon-flow-fail"><g transform="translate(11.250000, 12.250000)" fill="#D13212" fill-rule="nonzero"><path d="M12.75,0 C5.70836944,0 0,5.70836944 0,12.75 C0,19.7916306 5.70836944,25.5 12.75,25.5 C19.7916306,25.5 25.5,19.7916306 25.5,12.75 C25.5,5.70836944 19.7916306,0 12.75,0 Z M12.75,1.5 C18.9632034,1.5 24,6.53679656 24,12.75 C24,18.9632034 18.9632034,24 12.75,24 C6.53679656,24 1.5,18.9632034 1.5,12.75 C1.5,6.53679656 6.53679656,1.5 12.75,1.5 Z"/><path d="M16.5831403,8.21116377 C16.8767518,7.99330931 17.2934155,8.01751536 17.559682,8.28378193 C17.8259486,8.55004849 17.8501547,8.96671217 17.6323002,9.26032366 L17.559682,9.3444421 L13.622464,13.282112 L17.559682,17.2196699 C17.8525753,17.5125631 17.8525753,17.9874369 17.559682,18.2803301 C17.2934155,18.5465966 16.8767518,18.5708027 16.5831403,18.3529482 L16.4990219,18.2803301 L12.561464,14.343112 L8.62379406,18.2803301 L8.53967563,18.3529482 C8.24606413,18.5708027 7.82940045,18.5465966 7.56313389,18.2803301 C7.29686733,18.0140635 7.27266128,17.5973998 7.49051574,17.3037883 L7.56313389,17.2196699 L11.500464,13.282112 L7.56313389,9.3444421 C7.27024067,9.05154888 7.27024067,8.57667514 7.56313389,8.28378193 C7.82940045,8.01751536 8.24606413,7.99330931 8.53967563,8.21116377 L8.62379406,8.28378193 L12.561464,12.221112 L16.4990219,8.28378193 L16.5831403,8.21116377 Z"/></g></g><g stroke="none" stroke-width="1" fill="none" fill-rule="evenodd" id="icon-flow-s3-json-file"><g transform="translate(8.25, 8.250000)" fill-rule="nonzero"><g id="Group" fill="#0073BB" fill-rule="nonzero"><path d="M3.14022625,14.8427181 L3.04838959,14.837465 L2.97882707,14.825311 L2.89503206,14.8007955 L2.78861196,14.7524007 L2.71288627,14.7041811 L2.67470485,14.6746845 L2.58807542,14.5916924 C1.45196787,13.3309188 0.599887201,12.3853386 0.031833424,11.7549518 C0.000399364576,11.7200684 -0.00775491605,11.7065131 0.0073705821,11.7142857 L0.00737058211,9.42857143 L0.0759194765,9.3795093 L2.36184819,11.9165714 L2.36184819,6.57142857 C2.36184819,3.02653111 4.89117933,0.137214844 8.05635052,0.00474523823 L8.28348999,0 L23.7312512,0 C26.8827221,0 29.4658032,2.73461888 29.6431785,6.19200329 L29.651943,6.46433056 L29.7573706,14 C29.7573706,14.4733869 29.2839487,15 28.8573706,15 C28.4307924,15 28.0573706,14.4733869 28.0573706,14 C28.0906961,12.8768885 28.1073569,11.8916977 28.107353,11.0444277 C28.1073484,10.0297432 28.1073413,8.50771651 28.107332,6.47834758 C28.0640748,3.91551155 26.2334867,1.52323407 23.9469128,1.4 L23.7312512,1.4 L8.28348999,1.4 C5.93731018,1.4 4.02229021,3.76286516 3.91167154,6.33609562 L3.90662431,6.57142857 L3.90662431,11.9154286 L6.19255303,9.3795093 L6.22729127,11.7653253 L3.68039709,14.5916924 C3.64164613,14.6346955 3.59980204,14.672174 3.55565958,14.704128 L3.47964287,14.7525215 L3.40020114,14.7905433 L3.33159177,14.8144357 L3.25549148,14.8321773 L3.14022625,14.8427181 Z" id="Path" fill="false"/><path d="M28.8745149,20 L28.9950261,20.0082188 L29.0452212,20.0171414 L29.1133687,20.0347123 L29.1739194,20.0559896 L29.246295,20.0891896 L29.3400363,20.1470293 L29.4266657,20.2196475 L32.0472152,22.764239 L32.0254511,24.8529258 L31.9388217,24.7803077 L29.652893,22.561 L29.652893,27.2884619 C29.652893,30.3902472 27.1235618,32.9183989 23.9583906,33.0343098 L23.7312512,33.0384619 L8.28348999,33.0384619 C5.16680053,33.0384619 2.60090604,30.6964864 2.37760755,27.7109484 L2.36493266,27.4610815 L2.45737058,21 C2.45737058,20.5857864 2.83079244,20 3.25737058,20 C3.64840055,20 3.9562257,20.6339244 4.00737058,21 L3.90662431,25.2884619 L3.90917429,27.4351614 C3.9863164,29.6504278 5.8069073,31.5943145 8.07006233,31.7 L8.28348999,31.7 L23.7312512,31.7 C26.077431,31.7 27.992451,29.7459549 28.1030696,27.4943783 L28.1081169,27.2884619 L28.1081169,22.56 L25.7573706,24.7884619 L25.7573706,22.7884619 L28.3343441,20.2196475 L28.4139509,20.1521494 L28.5147252,20.0891877 L28.5869872,20.0560307 L28.6670145,20.0290532 L28.715765,20.0171381 L28.7844515,20.0057649 L28.8745149,20 Z" id="Path" fill="false"/></g><g id="Group-5" transform="translate(9.674037, 6.916667)"><g id="Group-2" stroke="#0073BB" stroke-linejoin="round"><g id="Outline-Copy"><path d="M0,0.491452991 C0,0.201004274 0.2026875,0 0.496895833,0 L8.94436458,0 L13.4166667,4.42307692 L13.4166667,18.6752137 C13.4166667,18.9656624 13.2139792,19.1666667 12.9197708,19.1666667 L0.496895833,19.1666667 C0.2026875,19.1666667 0,18.9656624 0,18.6752137 C0,13.4738813 0,9.5728821 0,6.97221593 L0,0.491452991 Z" id="Path" stroke-width="1.2" stroke-linecap="round"/><polyline id="Stroke-7" stroke-width="1.5" points="8.94444444 0 8.94444444 4.47222222 13.4166667 4.47222222"/></g></g><g id="script" opacity="0.867687044" transform="translate(2.383333, 6.083333)" fill="#0160AC" fill-rule="nonzero"><path d="M5.84514794,8.5 C6.44891075,8.5 6.85243366,8.41547827 7.05571666,8.24643485 C7.25899972,8.07739144 7.36064125,7.7404468 7.36064125,7.23560088 L7.36064125,7.03857396 C7.36064125,6.69591834 7.42698211,5.91866129 7.55966383,5.78616777 C7.69234556,5.6536743 7.93032065,5.58742757 8.27358901,5.58742757 L8.5,5.58742757 L8.5,3.85359032 L8.27358901,3.85359032 C7.93032065,3.85359032 7.69234556,3.78791466 7.55966383,3.65656336 C7.42698211,3.52521205 7.36064125,2.74738389 7.36064125,2.40244394 L7.36064125,2.20541698 C7.36064125,1.70057109 7.25899972,1.36419753 7.05571666,1.1962963 C6.85243366,1.02839506 6.44891075,0.944444444 5.84514794,0.944444444 L4.72222222,0.944444444 L4.72222222,2.13517259 L5.16408891,2.13517259 C5.41971431,2.13517259 5.59073986,2.18428655 5.67716555,2.28251448 C5.7635913,2.38074242 5.80680417,3.13058704 5.80680417,3.45268329 L5.80680417,3.62915091 C5.80680417,4.00607205 5.86584146,4.27105903 5.98391603,4.42411186 C6.10199061,4.57716468 6.31440308,4.67539262 6.62115356,4.71879566 C6.31683766,4.76676744 6.10503376,4.86842192 5.98574193,5.02375912 C5.86645009,5.17909632 5.80680417,5.4440833 5.80680417,5.81872007 L5.80680417,5.98148147 C5.80680417,6.30814645 5.76298267,7.06027545 5.67533966,7.1585034 C5.5876967,7.25673134 5.41727979,7.30584526 5.16408891,7.30584526 L4.72222222,7.30584526 L4.72222222,8.5 L5.84514794,8.5 Z" id="}" fill="false"/><path d="M1.12292573,8.5 C1.7266885,8.5 2.13021141,8.41547827 2.33349444,8.24643485 C2.53677747,8.07739144 2.63841899,7.7404468 2.63841899,7.23560088 L2.63841899,7.03857396 C2.63841899,6.69591834 2.70475986,5.91866129 2.8374416,5.78616777 C2.97012333,5.6536743 3.20809838,5.58742757 3.55136674,5.58742757 L3.77777778,5.58742757 L3.77777778,3.85359032 L3.55136674,3.85359032 C3.20809838,3.85359032 2.97012333,3.78791466 2.8374416,3.65656336 C2.70475986,3.52521205 2.63841899,2.74738389 2.63841899,2.40244394 L2.63841899,2.20541698 C2.63841899,1.70057109 2.53677747,1.36419753 2.33349444,1.1962963 C2.13021141,1.02839506 1.7266885,0.944444444 1.12292573,0.944444444 L0,0.944444444 L0,2.13517259 L0.441866711,2.13517259 C0.697492077,2.13517259 0.868517623,2.18428655 0.954943343,2.28251448 C1.04136906,2.38074242 1.08458193,2.5909045 1.08458193,2.91300075 L1.08458193,3.08946838 C1.08458193,3.46638952 1.14361921,4.27105903 1.26169378,4.42411186 C1.37976836,4.57716468 1.59218087,4.67539262 1.89893131,4.71879566 C1.5946154,4.76676744 1.38281152,4.86842192 1.26351968,5.02375912 C1.14422784,5.17909632 1.08458193,5.4440833 1.08458193,5.81872007 L1.08458193,5.98148147 C1.08458193,6.30814645 1.04076043,7.06027545 0.953117449,7.1585034 C0.865474467,7.25673134 0.695057552,7.30584526 0.441866711,7.30584526 L0,7.30584526 L0,8.5 L1.12292573,8.5 Z" id="}-copy" transform="translate(1.888889, 4.722222) scale(-1, 1) translate(-1.888889, -4.722222) " fill="false"/></g></g></g></g><g stroke="none" stroke-width="1" fill="none" fill-rule="evenodd" id="icon-service-ddb"><polygon fill="url(#gradient-blue)" fill-rule="nonzero" points="0 0 48 0 48 48 0 48"/><path d="M34.5810287,19.5947556 L32.1910412,19.5947556 C31.9723757,19.5947556 31.7677101,19.4862534 31.6430441,19.3049671 C31.5183781,19.1230069 31.4897116,18.8911762 31.5670445,18.6842807 L33.2290358,14.2033421 L27.287067,14.2033421 L24.559748,20.2686823 L27.5243991,20.2686823 C27.738398,20.2686823 27.9397302,20.372467 28.0657296,20.5490358 C28.1903956,20.7242568 28.2250621,20.9500222 28.1563958,21.1555699 L25.7164086,28.5559589 L34.5810287,19.5947556 Z M36.6616844,19.3972951 L24.6624141,31.5279756 C24.5344148,31.6580435 24.3630824,31.7254361 24.1910833,31.7254361 C24.0697506,31.7254361 23.9490845,31.6924137 23.8410851,31.6250211 C23.5777532,31.4605829 23.4604204,31.1350764 23.5590866,30.8385486 L26.5990706,21.6165357 L23.5244201,21.6165357 C23.2977546,21.6165357 23.0870891,21.4999464 22.9637564,21.3078773 C22.841757,21.1144603 22.8237571,20.8725206 22.9177566,20.6636034 L26.2510724,13.2504097 C26.3590719,13.0098179 26.5957373,12.8554887 26.8577359,12.8554887 L34.1910307,12.8554887 C34.4096962,12.8554887 34.6143618,12.9639909 34.7390278,13.1452772 C34.8636938,13.3272374 34.8923603,13.5590681 34.8156941,13.7659636 L33.1530362,18.2469022 L36.1903535,18.2469022 C36.4596854,18.2469022 36.7036842,18.4113403 36.8063503,18.662715 C36.9096831,18.9147636 36.85235,19.2045521 36.6616844,19.3972951 L36.6616844,19.3972951 Z M30.8577149,32.241664 C29.0510577,33.4992112 25.7330752,34.163029 22.5457586,34.163029 C19.3351088,34.163029 15.9877931,33.4904502 14.1904692,32.214033 L14.1911358,34.7581063 C14.1911358,35.8673896 17.3697858,37.4140514 22.5457586,37.4140514 C27.542399,37.4140514 30.8577149,35.6126453 30.8577149,34.4211429 L30.8577149,32.241664 Z M32.2337077,30.0621851 C32.2337077,30.1868615 32.2123744,30.3068204 32.1910412,30.4261055 L32.1910412,34.4211429 C32.1910412,36.8149305 27.8643973,38.7619048 22.5457586,38.7619048 C17.9437828,38.7619048 13.2984739,37.5023358 12.8971426,35.0950696 L12.8578095,35.0950696 L12.8571429,31.7254361 L12.8571429,22.9643891 L12.8571429,13.5294154 L12.8578095,13.5294154 C12.8578095,10.8653831 17.8491166,9.42857143 22.5457586,9.42857143 C25.1730781,9.42857143 27.6990648,9.85516703 29.4770555,10.5991821 L28.9663915,11.8445986 C27.3450667,11.1652805 25.0044123,10.7764248 22.5457586,10.7764248 C17.3697858,10.7764248 14.1911358,12.3796964 14.1911358,13.5294154 C14.1911358,14.6791343 17.3697858,16.2824059 22.5457586,16.2824059 C22.6757579,16.2824059 22.8117572,16.2830798 22.9430898,16.2776884 L22.9950896,17.624194 C22.8450903,17.6302593 22.6957578,17.6302593 22.5457586,17.6302593 C19.3344421,17.6302593 15.9877931,16.9576805 14.1904692,15.6812633 L14.1904692,18.5865613 L14.1911358,18.5865613 L14.1911358,18.598018 C14.1944692,18.9511556 14.5171341,19.3602291 15.1004644,19.7443674 C16.4217908,20.60295 18.8004449,21.1899401 21.4597643,21.3119208 L21.399098,22.6584264 C18.6484457,22.5317282 16.2324584,21.9460859 14.6751333,21.0477416 C14.4684677,21.24655 14.1911358,21.751995 14.1911358,22.0256092 C14.1911358,23.1753282 17.3697858,24.7785998 22.5457586,24.7785998 C23.037756,24.7785998 23.5224201,24.7617516 23.9870843,24.7287292 L24.0810839,26.0732129 C23.5850865,26.1089311 23.0684225,26.1264532 22.5457586,26.1264532 C19.3344421,26.1264532 15.9877931,25.4538743 14.1904692,24.1774572 L14.1904692,26.6238111 L14.1911358,26.6238111 C14.1944692,26.9884054 14.5171341,27.3974789 15.1004644,27.7816171 C16.6124564,28.7648762 19.4664414,29.3774755 22.5457586,29.3774755 L22.7657574,29.3774755 L22.7657574,30.7253289 L22.5457586,30.7253289 C19.360442,30.7253289 15.9724598,30.053424 14.1911358,29.0297294 C13.9764703,29.2285377 14.1911358,29.7036561 14.1911358,30.0621851 C14.1911358,31.211904 17.3697858,32.8151756 22.5457586,32.8151756 C27.722398,32.8151756 30.9003813,31.211904 30.9003813,30.0621851 C30.9003813,29.6558073 30.5010501,29.2790822 30.1723852,29.0364686 C29.8997199,29.2009067 29.5997215,29.3586056 29.2577233,29.5028259 L28.745726,28.2580833 C29.0997241,28.1091455 29.4057225,27.9494249 29.6550545,27.7836389 C30.3890507,27.2943681 30.8577149,26.5982018 30.8577149,26.3340226 L32.1910412,26.3340226 C32.1910412,26.9607744 31.7770434,27.6320054 31.2463795,28.1839514 C32.041042,28.8774219 32.2337077,29.5695446 32.2337077,30.0621851 L32.2337077,30.0621851 Z M14.9517985,35.0209377 C15.4791291,35.2932041 16.0957925,35.5358177 16.7864555,35.7413653 L17.1624536,34.4481 C16.5517901,34.2668137 16.0117929,34.0552007 15.558462,33.8206742 L14.9517985,35.0209377 Z M16.7864555,27.654245 L17.1624536,26.3616536 C16.5517901,26.1796934 16.0117929,25.9687543 15.558462,25.7342278 L14.9517985,26.9338173 C15.4791291,27.2067576 16.0957925,27.4486973 16.7864555,27.654245 L16.7864555,27.654245 Z M14.9517985,18.8473709 L15.558462,17.6471075 C16.0117929,17.881634 16.5517901,18.092573 17.1624536,18.2745332 L16.7864555,19.5677986 C16.0957925,19.3622509 15.4791291,19.1196373 14.9517985,18.8473709 L14.9517985,18.8473709 Z" fill="#FFFFFF"/></g><g stroke="none" stroke-width="1" fill="none" fill-rule="evenodd" id="icon-service-events"><g fill="url(#gradient-pink)" fill-rule="nonzero"><rect x="0" y="0" width="48" height="48"/></g><path d="M31.2584891,38.2790698 C30.1297571,38.2790698 29.2116636,37.367814 29.2116636,36.2474884 C29.2116636,35.1271628 30.1297571,34.215907 31.2584891,34.215907 C32.3872211,34.215907 33.3053146,35.1271628 33.3053146,36.2474884 C33.3053146,37.367814 32.3872211,38.2790698 31.2584891,38.2790698 L31.2584891,38.2790698 Z M26.4152555,28.9069767 L20.5442511,28.9069767 L17.6083857,23.8604651 L20.5442511,18.8139535 L26.4152555,18.8139535 L29.3511208,23.8604651 L26.4152555,28.9069767 Z M16.4680323,13.5050233 C15.3393003,13.5050233 14.4204804,12.5937674 14.4204804,11.4734419 C14.4204804,10.3531163 15.3393003,9.44186047 16.4680323,9.44186047 C17.5960379,9.44186047 18.5148577,10.3531163 18.5148577,11.4734419 C18.5148577,12.5937674 17.5960379,13.5050233 16.4680323,13.5050233 L16.4680323,13.5050233 Z M31.2584891,32.7740465 C30.8677183,32.7740465 30.4980114,32.8526279 30.1464629,32.9701395 L27.9093364,29.2227442 L30.8190535,24.2209302 C30.948342,23.9974419 30.948342,23.7234884 30.8190535,23.5 L27.4633638,17.7325581 C27.3340753,17.5090698 27.0943832,17.372093 26.8343535,17.372093 L20.8333343,17.372093 L18.8315419,14.0190465 C19.5251964,13.383907 19.9675373,12.4820233 19.9675373,11.4734419 C19.9675373,9.55865116 18.397917,8 16.4680323,8 C14.5374211,8 12.9678009,9.55865116 12.9678009,11.4734419 C12.9678009,13.3889535 14.5374211,14.9468837 16.4680323,14.9468837 C16.8588031,14.9468837 17.22851,14.8683023 17.5800585,14.7507907 L19.4293195,17.847186 L16.1411794,23.5 C16.0111645,23.7234884 16.0111645,23.9974419 16.1411794,24.2209302 L19.4961428,29.9883721 C19.6254313,30.2118605 19.8651234,30.3488372 20.125153,30.3488372 L26.8343535,30.3488372 C26.8532384,30.3488372 26.8706705,30.3430698 26.8881027,30.3416279 L28.8949795,33.7018837 C28.201325,34.3370233 27.7589841,35.238907 27.7589841,36.2474884 C27.7589841,38.1622791 29.3286043,39.7209302 31.2584891,39.7209302 C33.1883739,39.7209302 34.7579941,38.1622791 34.7579941,36.2474884 C34.7579941,34.3319767 33.1883739,32.7740465 31.2584891,32.7740465 L31.2584891,32.7740465 Z M34.6265266,19.2724651 C33.4977946,19.2724651 32.5789748,18.3612093 32.5789748,17.2408837 C32.5789748,16.1205581 33.4977946,15.2093023 34.6265266,15.2093023 C35.7545323,15.2093023 36.6733521,16.1205581 36.6733521,17.2408837 C36.6733521,18.3612093 35.7545323,19.2724651 34.6265266,19.2724651 L34.6265266,19.2724651 Z M36.8222518,19.9234651 C37.6110568,19.2861628 38.1260317,18.3273256 38.1260317,17.2408837 C38.1260317,15.326093 36.5564114,13.7674419 34.6265266,13.7674419 C34.1667536,13.7674419 33.7302233,13.8611628 33.3285575,14.0219302 L31.3616293,11.1951628 C31.2250775,11.0005116 31.0013648,10.8837209 30.7631254,10.8837209 L24.2260674,10.8837209 L24.2260674,12.3255814 L30.3825233,12.3255814 L32.1206544,14.8243256 C31.50835,15.450093 31.1262953,16.3015116 31.1262953,17.2408837 C31.1262953,19.1563953 32.6959155,20.7143256 34.6265266,20.7143256 C34.9395791,20.7143256 35.2381047,20.6602558 35.5279143,20.5831163 L37.4352825,23.8604651 L34.6606646,28.6301395 L35.9186851,29.3510698 L38.9024889,24.2209302 C39.0325037,23.9974419 39.0325037,23.7234884 38.9024889,23.5 L36.8222518,19.9234651 Z M12.8363334,32.2492093 C11.7076014,32.2492093 10.7887816,31.3379535 10.7887816,30.2176279 C10.7887816,29.0973023 11.7076014,28.1860465 12.8363334,28.1860465 C13.9643391,28.1860465 14.8831589,29.0973023 14.8831589,30.2176279 C14.8831589,31.3379535 13.9643391,32.2492093 12.8363334,32.2492093 L12.8363334,32.2492093 Z M14.936908,32.9780698 C15.7809148,32.3436512 16.3358384,31.3480465 16.3358384,30.2176279 C16.3358384,28.3028372 14.7662182,26.744186 12.8363334,26.744186 C12.3308009,26.744186 11.8528693,26.8559302 11.4192445,27.0476977 L9.56489904,23.8604651 L12.7891213,18.3172326 L11.5311008,17.5963023 L8.09696636,23.5 C7.96767788,23.7234884 7.96767788,23.9974419 8.09696636,24.2209302 L10.2411214,27.9077674 C9.68547145,28.5234419 9.33610202,29.3272791 9.33610202,30.2176279 C9.33610202,32.1331395 10.9057223,33.6910698 12.8363334,33.6910698 C13.1014474,33.6910698 13.357119,33.6564651 13.6048009,33.6009535 L15.6385522,36.5257674 C15.7743778,36.7204186 15.9973641,36.8372093 16.2363299,36.8372093 L22.7733878,36.8372093 L22.7733878,35.3953488 L16.6183846,35.3953488 L14.936908,32.9780698 Z" fill="#FFFFFF"/></g><g stroke="none" stroke-width="1" fill="none" fill-rule="evenodd" id="icon-service-systems-manager"><polygon fill="url(#gradient-pink)" fill-rule="nonzero" points="0 0 48 0 48 48 0 48"/><g transform="translate(8 8) scale(0.032)"><path d="M642.9 750L821.4 750 821.4 785.7 642.9 785.7 642.9 821.4 607.1 821.4 607.1 785.7 535.7 785.7 535.7 750 607.1 750 607.1 714.3 642.9 714.3 642.9 750ZM785.7 571.4L821.4 571.4 821.4 607.1 785.7 607.1 785.7 642.8 750 642.8 750 607.1 535.7 607.1 535.7 571.4 750 571.4 750 535.7 785.7 535.7 785.7 571.4ZM155.6 607.1L321.4 607.1 321.4 642.8 155.6 642.8C136.6 642.8 117 642.8 96.8 630.2 60.6 607.8 0 555.3 0 455.9 0 335.3 83.2 291 131.7 275.5L130.8 259.9C130.8 160.5 197.8 58.7 286.6 22 390.5-21.3 500.5 0.2 581 79.4 606.1 103.9 626.6 133.8 642.4 168.6 674.4 142.4 717.9 133.6 758.3 147.1 808.2 163.7 839.4 209.4 843.3 270.4 901.5 280.2 1000 301.2 1000 428.5L964.3 428.5C964.3 334.2 903.9 316.6 830.9 304.6L822.4 303.2C817.6 302.4 813.3 299.6 810.5 295.5 807.8 291.3 806.9 286.3 808.1 281.5 808 231.4 785.8 193.9 747 180.9 711.7 169.2 673 181.4 650.5 211.4 646.6 216.7 640.3 219.2 633.5 218.3 627.1 217.4 621.6 212.9 619.4 206.8 604.6 165.8 583.3 131.6 556 104.8 486 36 390.5 17.4 300.4 55 225.3 86 166.5 175.5 166.5 258.8L168.3 287.7C168.8 296.3 163.1 304 154.8 306.1 110.3 317.1 35.7 351.3 35.7 455.9 35.7 533.9 79.2 577.3 115.6 599.9 126.7 606.7 138 607.1 155.6 607.1L155.6 607.1ZM964.3 720L932.8 718.2C924.5 717.9 916.3 723.5 914.4 732.1 908.4 758.8 897.9 784.2 883.2 807.4 878.5 814.8 879.9 824.5 886.4 830.3L909.9 851.3 851.3 909.9 830.4 886.5C824.6 879.9 814.9 878.6 807.5 883.2 784.3 897.9 758.9 908.5 732.1 914.5 723.6 916.4 717.7 924.2 718.2 933L720 964.3 637.1 964.3 639 932.9C639.5 924.2 633.6 916.4 625.1 914.5 598.3 908.4 572.9 897.9 549.6 883.2 542.3 878.6 532.6 879.9 526.8 886.4L505.9 909.9 447.2 851.3 470.7 830.3C477.3 824.6 478.6 814.9 474 807.5 459.3 784.3 448.8 758.9 442.7 732.1 440.8 723.6 434 718 424.3 718.2L392.9 720 392.9 637.1 424.4 638.9C434.1 639.1 440.9 633.5 442.8 625 448.9 598.3 459.4 572.9 474.1 549.7 478.8 542.4 477.4 532.7 470.9 526.9L447.2 505.8 505.9 447.2 526.9 470.8C532.7 477.3 542.4 478.6 549.8 474 573 459.4 598.4 448.9 625.1 442.9 633.6 440.9 639.4 433.1 639 424.4L637.1 392.8 720 392.8 718.2 424.4C717.7 433.1 723.6 441 732.1 442.9 758.8 448.9 784.1 459.4 807.3 474.1 814.7 478.7 824.4 477.4 830.2 470.9L851.3 447.2 909.9 505.8 886.3 526.8C879.8 532.7 878.4 542.3 883.1 549.7 897.8 572.9 908.3 598.2 914.4 625 916.3 633.5 923.1 639.5 932.8 638.9L964.3 637.1 964.3 720ZM981.1 600.4L945.4 602.4C939.6 581.9 931.4 562.3 921.1 543.7L947.8 519.8C951.5 516.6 953.6 511.9 953.8 507 953.9 502.1 952 497.4 948.5 493.9L863.2 408.5C859.7 405.1 855.2 403.3 850 403.3 845.1 403.5 840.5 405.6 837.2 409.3L813.3 436.1C794.8 425.8 775.1 417.6 754.7 411.8L756.7 376C757 371 755.3 366.2 751.9 362.7 748.5 359.1 743.8 357.1 738.9 357.1L618.3 357.1C613.3 357.1 608.6 359.1 605.3 362.7 601.9 366.2 600.1 371 600.4 376L602.5 411.8C582 417.6 562.4 425.7 543.8 436L519.9 409.3C516.6 405.6 512 403.5 507.1 403.3 502.3 403.4 497.4 405.1 494 408.5L408.6 493.9C405.1 497.4 403.2 502.1 403.4 507 403.5 511.9 405.7 516.6 409.4 519.8L436.1 543.7C425.8 562.3 417.6 582 411.8 602.4L376 600.4C371.2 600.3 366.3 601.8 362.7 605.2 359.2 608.6 357.1 613.3 357.1 618.2L357.1 738.9C357.1 743.8 359.2 748.5 362.7 751.9 366.3 755.2 371.2 757 376 756.7L411.6 754.6C417.5 775.2 425.6 794.9 436 813.5L409.4 837.2C405.7 840.5 403.5 845.1 403.4 850.1 403.2 854.9 405.1 859.7 408.6 863.2L494 948.5C497.4 952 502.1 953.6 507.1 953.7 512 953.6 516.6 951.5 519.9 947.8L543.6 921.1C562.3 931.6 582 939.7 602.5 945.6L600.4 981.1C600.1 986 601.9 990.8 605.3 994.4 608.6 998 613.3 1000 618.3 1000L738.9 1000C743.8 1000 748.5 998 751.9 994.4 755.3 990.8 757 986 756.7 981.1L754.7 945.6C775.2 939.7 794.9 931.6 813.5 921.2L837.2 947.8C840.5 951.5 845.1 953.6 850 953.7 855.4 953.8 859.7 952 863.2 948.5L948.5 863.2C952 859.7 953.9 854.9 953.8 850.1 953.6 845.1 951.5 840.5 947.8 837.2L921.1 813.4C931.5 794.8 939.6 775.2 945.5 754.6L981.1 756.7C985.9 757 990.8 755.2 994.4 751.9 998 748.5 1000 743.8 1000 738.9L1000 618.2C1000 613.3 998 608.6 994.4 605.2 990.8 601.8 985.9 600.3 981.1 600.4L981.1 600.4Z" fill="#FFFFFF"/></g></g></defs></g></svg>